<?xml version="1.0" standalone="no"?>
<!DOCTYPE svg PUBLIC "-//W3C//DTD SVG 20010904//EN"
 "http://www.w3.org/TR/2001/REC-SVG-20010904/DTD/svg10.dtd">
<svg version="1.0" xmlns="http://www.w3.org/2000/svg"
 width="360.000000pt" height="360.000000pt" viewBox="0 0 360.000000 360.000000"
 preserveAspectRatio="xMidYMid meet">

<g transform="translate(0.000000,360.000000) scale(0.100000,-0.100000)"
fill="#000000" stroke="none">
<path d="M1375 3575 l-25 -24 0 -651 0 -650 -650 0 -651 0 -24 -25 -25 -24 0
-326 0 -326 25 -24 24 -25 651 0 650 0 0 -650 0 -651 25 -24 24 -25 326 0 326
0 24 25 25 24 0 651 0 650 650 0 651 0 24 25 25 24 0 326 0 326 -25 24 -24 25
-651 0 -650 0 0 650 0 651 -25 24 -24 25 -326 0 -326 0 -24 -25z"/>
</g>
</svg>
